<?xml version="1.0" encoding="UTF-8"?>
<svg id="a" data-name="Layer 1" xmlns="http://www.w3.org/2000/svg" width="300mm" height="300mm" viewBox="0 0 850.39 850.39">
  <path d="m746.93,451.54h-168.77l48.85-100.18h-84l-116.96,239.07c-.12.2-.32.32-.56.32h-11.01V227.67c0-.31-.25-.56-.56-.56h-70.79c-.32,0-.6.24-.6.56l.2,98.43c0,.32-.24.6-.6.6h-207.39c-.36,0-.6.04-.6.4v67.16c0,.32.24.56.6.56h207.23c.31,0,.56.25.56.56v55.56c0,.33-.27.6-.6.6h-207.19c-.36,0-.6.24-.6.56v68.94c0,.32.24.6.6.6h207.23c.31,0,.56.25.56.56v83.84c0,.31.25.56.56.56h159.08c.2,0,.44-.12.52-.32l41.28-84.64h202.99l-.04-70.09Z" style="fill: #0d1117;"/>
</svg>